%TF.GenerationSoftware,KiCad,Pcbnew,(6.99.0-1656-g034b57d9c0)*%
%TF.CreationDate,2022-05-27T10:29:39-07:00*%
%TF.ProjectId,GymTimer,47796d54-696d-4657-922e-6b696361645f,rev?*%
%TF.SameCoordinates,Original*%
%TF.FileFunction,Legend,Top*%
%TF.FilePolarity,Positive*%
%FSLAX46Y46*%
G04 Gerber Fmt 4.6, Leading zero omitted, Abs format (unit mm)*
G04 Created by KiCad (PCBNEW (6.99.0-1656-g034b57d9c0)) date 2022-05-27 10:29:39*
%MOMM*%
%LPD*%
G01*
G04 APERTURE LIST*
%ADD10C,0.150000*%
%ADD11C,0.120000*%
G04 APERTURE END LIST*
D10*
%TO.C,C1*%
X114722142Y-92666666D02*
X114769761Y-92714285D01*
X114769761Y-92714285D02*
X114817380Y-92857142D01*
X114817380Y-92857142D02*
X114817380Y-92952380D01*
X114817380Y-92952380D02*
X114769761Y-93095237D01*
X114769761Y-93095237D02*
X114674523Y-93190475D01*
X114674523Y-93190475D02*
X114579285Y-93238094D01*
X114579285Y-93238094D02*
X114388809Y-93285713D01*
X114388809Y-93285713D02*
X114245952Y-93285713D01*
X114245952Y-93285713D02*
X114055476Y-93238094D01*
X114055476Y-93238094D02*
X113960238Y-93190475D01*
X113960238Y-93190475D02*
X113865000Y-93095237D01*
X113865000Y-93095237D02*
X113817380Y-92952380D01*
X113817380Y-92952380D02*
X113817380Y-92857142D01*
X113817380Y-92857142D02*
X113865000Y-92714285D01*
X113865000Y-92714285D02*
X113912619Y-92666666D01*
X114817380Y-91714285D02*
X114817380Y-92285713D01*
X114817380Y-91999999D02*
X113817380Y-91999999D01*
X113817380Y-91999999D02*
X113960238Y-92095237D01*
X113960238Y-92095237D02*
X114055476Y-92190475D01*
X114055476Y-92190475D02*
X114103095Y-92285713D01*
%TO.C,R1*%
X113317380Y-92166666D02*
X112841190Y-92499999D01*
X113317380Y-92738094D02*
X112317380Y-92738094D01*
X112317380Y-92738094D02*
X112317380Y-92357142D01*
X112317380Y-92357142D02*
X112365000Y-92261904D01*
X112365000Y-92261904D02*
X112412619Y-92214285D01*
X112412619Y-92214285D02*
X112507857Y-92166666D01*
X112507857Y-92166666D02*
X112650714Y-92166666D01*
X112650714Y-92166666D02*
X112745952Y-92214285D01*
X112745952Y-92214285D02*
X112793571Y-92261904D01*
X112793571Y-92261904D02*
X112841190Y-92357142D01*
X112841190Y-92357142D02*
X112841190Y-92738094D01*
X113317380Y-91214285D02*
X113317380Y-91785713D01*
X113317380Y-91499999D02*
X112317380Y-91499999D01*
X112317380Y-91499999D02*
X112460238Y-91595237D01*
X112460238Y-91595237D02*
X112555476Y-91690475D01*
X112555476Y-91690475D02*
X112603095Y-91785713D01*
%TO.C,C2*%
X114722142Y-97076666D02*
X114769761Y-97124285D01*
X114769761Y-97124285D02*
X114817380Y-97267142D01*
X114817380Y-97267142D02*
X114817380Y-97362380D01*
X114817380Y-97362380D02*
X114769761Y-97505237D01*
X114769761Y-97505237D02*
X114674523Y-97600475D01*
X114674523Y-97600475D02*
X114579285Y-97648094D01*
X114579285Y-97648094D02*
X114388809Y-97695713D01*
X114388809Y-97695713D02*
X114245952Y-97695713D01*
X114245952Y-97695713D02*
X114055476Y-97648094D01*
X114055476Y-97648094D02*
X113960238Y-97600475D01*
X113960238Y-97600475D02*
X113865000Y-97505237D01*
X113865000Y-97505237D02*
X113817380Y-97362380D01*
X113817380Y-97362380D02*
X113817380Y-97267142D01*
X113817380Y-97267142D02*
X113865000Y-97124285D01*
X113865000Y-97124285D02*
X113912619Y-97076666D01*
X113912619Y-96695713D02*
X113865000Y-96648094D01*
X113865000Y-96648094D02*
X113817380Y-96552856D01*
X113817380Y-96552856D02*
X113817380Y-96314761D01*
X113817380Y-96314761D02*
X113865000Y-96219523D01*
X113865000Y-96219523D02*
X113912619Y-96171904D01*
X113912619Y-96171904D02*
X114007857Y-96124285D01*
X114007857Y-96124285D02*
X114103095Y-96124285D01*
X114103095Y-96124285D02*
X114245952Y-96171904D01*
X114245952Y-96171904D02*
X114817380Y-96743332D01*
X114817380Y-96743332D02*
X114817380Y-96124285D01*
%TO.C,M1*%
X98317380Y-93509523D02*
X97317380Y-93509523D01*
X97317380Y-93509523D02*
X98031666Y-93176190D01*
X98031666Y-93176190D02*
X97317380Y-92842857D01*
X97317380Y-92842857D02*
X98317380Y-92842857D01*
X98317380Y-91842857D02*
X98317380Y-92414285D01*
X98317380Y-92128571D02*
X97317380Y-92128571D01*
X97317380Y-92128571D02*
X97460238Y-92223809D01*
X97460238Y-92223809D02*
X97555476Y-92319047D01*
X97555476Y-92319047D02*
X97603095Y-92414285D01*
%TO.C,U1*%
X119317380Y-97461904D02*
X120126904Y-97461904D01*
X120126904Y-97461904D02*
X120222142Y-97414285D01*
X120222142Y-97414285D02*
X120269761Y-97366666D01*
X120269761Y-97366666D02*
X120317380Y-97271428D01*
X120317380Y-97271428D02*
X120317380Y-97080952D01*
X120317380Y-97080952D02*
X120269761Y-96985714D01*
X120269761Y-96985714D02*
X120222142Y-96938095D01*
X120222142Y-96938095D02*
X120126904Y-96890476D01*
X120126904Y-96890476D02*
X119317380Y-96890476D01*
X120317380Y-95890476D02*
X120317380Y-96461904D01*
X120317380Y-96176190D02*
X119317380Y-96176190D01*
X119317380Y-96176190D02*
X119460238Y-96271428D01*
X119460238Y-96271428D02*
X119555476Y-96366666D01*
X119555476Y-96366666D02*
X119603095Y-96461904D01*
%TO.C,S1*%
X112269761Y-86461904D02*
X112317380Y-86319047D01*
X112317380Y-86319047D02*
X112317380Y-86080952D01*
X112317380Y-86080952D02*
X112269761Y-85985714D01*
X112269761Y-85985714D02*
X112222142Y-85938095D01*
X112222142Y-85938095D02*
X112126904Y-85890476D01*
X112126904Y-85890476D02*
X112031666Y-85890476D01*
X112031666Y-85890476D02*
X111936428Y-85938095D01*
X111936428Y-85938095D02*
X111888809Y-85985714D01*
X111888809Y-85985714D02*
X111841190Y-86080952D01*
X111841190Y-86080952D02*
X111793571Y-86271428D01*
X111793571Y-86271428D02*
X111745952Y-86366666D01*
X111745952Y-86366666D02*
X111698333Y-86414285D01*
X111698333Y-86414285D02*
X111603095Y-86461904D01*
X111603095Y-86461904D02*
X111507857Y-86461904D01*
X111507857Y-86461904D02*
X111412619Y-86414285D01*
X111412619Y-86414285D02*
X111365000Y-86366666D01*
X111365000Y-86366666D02*
X111317380Y-86271428D01*
X111317380Y-86271428D02*
X111317380Y-86033333D01*
X111317380Y-86033333D02*
X111365000Y-85890476D01*
X112317380Y-84938095D02*
X112317380Y-85509523D01*
X112317380Y-85223809D02*
X111317380Y-85223809D01*
X111317380Y-85223809D02*
X111460238Y-85319047D01*
X111460238Y-85319047D02*
X111555476Y-85414285D01*
X111555476Y-85414285D02*
X111603095Y-85509523D01*
%TO.C,P1*%
X112317380Y-80938094D02*
X111317380Y-80938094D01*
X111317380Y-80938094D02*
X111317380Y-80557142D01*
X111317380Y-80557142D02*
X111365000Y-80461904D01*
X111365000Y-80461904D02*
X111412619Y-80414285D01*
X111412619Y-80414285D02*
X111507857Y-80366666D01*
X111507857Y-80366666D02*
X111650714Y-80366666D01*
X111650714Y-80366666D02*
X111745952Y-80414285D01*
X111745952Y-80414285D02*
X111793571Y-80461904D01*
X111793571Y-80461904D02*
X111841190Y-80557142D01*
X111841190Y-80557142D02*
X111841190Y-80938094D01*
X112317380Y-79414285D02*
X112317380Y-79985713D01*
X112317380Y-79699999D02*
X111317380Y-79699999D01*
X111317380Y-79699999D02*
X111460238Y-79795237D01*
X111460238Y-79795237D02*
X111555476Y-79890475D01*
X111555476Y-79890475D02*
X111603095Y-79985713D01*
%TO.C,BT1*%
X96698840Y-121178663D02*
X96841697Y-121226282D01*
X96841697Y-121226282D02*
X96889316Y-121273901D01*
X96889316Y-121273901D02*
X96936935Y-121369139D01*
X96936935Y-121369139D02*
X96936935Y-121511996D01*
X96936935Y-121511996D02*
X96889316Y-121607234D01*
X96889316Y-121607234D02*
X96841697Y-121654853D01*
X96841697Y-121654853D02*
X96746459Y-121702472D01*
X96746459Y-121702472D02*
X96365507Y-121702472D01*
X96365507Y-121702472D02*
X96365507Y-120702472D01*
X96365507Y-120702472D02*
X96698840Y-120702472D01*
X96698840Y-120702472D02*
X96794078Y-120750092D01*
X96794078Y-120750092D02*
X96841697Y-120797711D01*
X96841697Y-120797711D02*
X96889316Y-120892949D01*
X96889316Y-120892949D02*
X96889316Y-120988187D01*
X96889316Y-120988187D02*
X96841697Y-121083425D01*
X96841697Y-121083425D02*
X96794078Y-121131044D01*
X96794078Y-121131044D02*
X96698840Y-121178663D01*
X96698840Y-121178663D02*
X96365507Y-121178663D01*
X97222650Y-120702472D02*
X97794078Y-120702472D01*
X97508364Y-121702472D02*
X97508364Y-120702472D01*
X98651221Y-121702472D02*
X98079793Y-121702472D01*
X98365507Y-121702472D02*
X98365507Y-120702472D01*
X98365507Y-120702472D02*
X98270269Y-120845330D01*
X98270269Y-120845330D02*
X98175031Y-120940568D01*
X98175031Y-120940568D02*
X98079793Y-120988187D01*
%TO.C,D1*%
X113317380Y-98148094D02*
X112317380Y-98148094D01*
X112317380Y-98148094D02*
X112317380Y-97909999D01*
X112317380Y-97909999D02*
X112365000Y-97767142D01*
X112365000Y-97767142D02*
X112460238Y-97671904D01*
X112460238Y-97671904D02*
X112555476Y-97624285D01*
X112555476Y-97624285D02*
X112745952Y-97576666D01*
X112745952Y-97576666D02*
X112888809Y-97576666D01*
X112888809Y-97576666D02*
X113079285Y-97624285D01*
X113079285Y-97624285D02*
X113174523Y-97671904D01*
X113174523Y-97671904D02*
X113269761Y-97767142D01*
X113269761Y-97767142D02*
X113317380Y-97909999D01*
X113317380Y-97909999D02*
X113317380Y-98148094D01*
X113317380Y-96624285D02*
X113317380Y-97195713D01*
X113317380Y-96909999D02*
X112317380Y-96909999D01*
X112317380Y-96909999D02*
X112460238Y-97005237D01*
X112460238Y-97005237D02*
X112555476Y-97100475D01*
X112555476Y-97100475D02*
X112603095Y-97195713D01*
D11*
%TO.C,M1*%
X99150000Y-91400000D02*
X103750000Y-91400000D01*
X103750000Y-91400000D02*
X103750000Y-94200000D01*
X103750000Y-94200000D02*
X99150000Y-94200000D01*
X99150000Y-94200000D02*
X99150000Y-91400000D01*
X99150000Y-95200000D02*
X103750000Y-95200000D01*
X103750000Y-95200000D02*
X103750000Y-103700000D01*
X103750000Y-103700000D02*
X99150000Y-103700000D01*
X99150000Y-103700000D02*
X99150000Y-95200000D01*
%TO.C,U1*%
X116375000Y-100125000D02*
X115575000Y-99325000D01*
X118975000Y-100125000D02*
X116375000Y-100125000D01*
X115575000Y-99325000D02*
X115575000Y-93275000D01*
X115575000Y-93275000D02*
X118975000Y-93275000D01*
X118975000Y-93275000D02*
X118975000Y-100125000D01*
%TO.C,BT1*%
X96932241Y-110200735D02*
X100932241Y-106200735D01*
X96950000Y-110200000D02*
X96950000Y-112200000D01*
X96950000Y-118200000D02*
X96950000Y-116200000D01*
X96973924Y-118201406D02*
X100973924Y-122201406D01*
X114950000Y-106200000D02*
X100950000Y-106200000D01*
X114950000Y-106200000D02*
X118950000Y-110200000D01*
X114950000Y-122200000D02*
X100950000Y-122200000D01*
X114951406Y-122176076D02*
X118951406Y-118176076D01*
X118950000Y-110200000D02*
X118950000Y-112200000D01*
X118950000Y-118200000D02*
X118950000Y-116200000D01*
%TD*%
M02*
