%TF.GenerationSoftware,KiCad,Pcbnew,(6.99.0-1656-g034b57d9c0)*%
%TF.CreationDate,2022-05-27T10:29:39-07:00*%
%TF.ProjectId,GymTimer,47796d54-696d-4657-922e-6b696361645f,rev?*%
%TF.SameCoordinates,Original*%
%TF.FileFunction,Copper,L1,Top*%
%TF.FilePolarity,Positive*%
%FSLAX46Y46*%
G04 Gerber Fmt 4.6, Leading zero omitted, Abs format (unit mm)*
G04 Created by KiCad (PCBNEW (6.99.0-1656-g034b57d9c0)) date 2022-05-27 10:29:39*
%MOMM*%
%LPD*%
G01*
G04 APERTURE LIST*
G04 Aperture macros list*
%AMOutline4P*
0 Free polygon, 4 corners , with rotation*
0 The origin of the aperture is its center*
0 number of corners: always 4*
0 $1 to $8 corner X, Y*
0 $9 Rotation angle, in degrees counterclockwise*
0 create outline with 4 corners*
4,1,4,$1,$2,$3,$4,$5,$6,$7,$8,$1,$2,$9*%
G04 Aperture macros list end*
%TA.AperFunction,SMDPad,CuDef*%
%ADD10R,0.600000X0.450000*%
%TD*%
%TA.AperFunction,SMDPad,CuDef*%
%ADD11R,0.610000X0.635000*%
%TD*%
%TA.AperFunction,ComponentPad*%
%ADD12C,3.000000*%
%TD*%
%TA.AperFunction,SMDPad,CuDef*%
%ADD13R,2.000000X3.000000*%
%TD*%
%TA.AperFunction,SMDPad,CuDef*%
%ADD14R,0.450000X1.450000*%
%TD*%
%TA.AperFunction,SMDPad,CuDef*%
%ADD15R,3.200000X1.000000*%
%TD*%
%TA.AperFunction,ComponentPad*%
%ADD16C,1.100000*%
%TD*%
%TA.AperFunction,SMDPad,CuDef*%
%ADD17Outline4P,-1.980000X1.980000X1.980000X1.980000X1.980000X-1.980000X-1.980000X-1.980000X0.000000*%
%TD*%
%TA.AperFunction,SMDPad,CuDef*%
%ADD18R,0.280000X0.200000*%
%TD*%
%TA.AperFunction,ComponentPad*%
%ADD19C,6.000000*%
%TD*%
%TA.AperFunction,ViaPad*%
%ADD20C,0.800000*%
%TD*%
%TA.AperFunction,Conductor*%
%ADD21C,0.250000*%
%TD*%
G04 APERTURE END LIST*
D10*
%TO.P,C1,1,1*%
%TO.N,3V*%
X114449999Y-94999999D03*
%TO.P,C1,2,2*%
%TO.N,GND*%
X114449999Y-94049999D03*
%TD*%
D11*
%TO.P,R1,1,1*%
%TO.N,3V*%
X112949999Y-95146999D03*
%TO.P,R1,2,2*%
%TO.N,Net-(P1-Pad1)*%
X112949999Y-93952999D03*
%TD*%
D10*
%TO.P,C2,1,1*%
%TO.N,Net-(C2-Pad1)*%
X114449999Y-99334999D03*
%TO.P,C2,2,2*%
%TO.N,Net-(C2-Pad2)*%
X114449999Y-98384999D03*
%TD*%
D12*
%TO.P,M1,*%
%TO.N,*%
X97150000Y-99200000D03*
X101450000Y-89400000D03*
X101450000Y-105700000D03*
X105750000Y-99200000D03*
D13*
%TO.P,M1,1,+*%
%TO.N,Net-(C2-Pad2)*%
X102649999Y-100999999D03*
%TO.P,M1,2,-*%
%TO.N,Net-(C2-Pad1)*%
X100249999Y-100999999D03*
%TD*%
D14*
%TO.P,U1,1,VDD*%
%TO.N,3V*%
X116299999Y-98899999D03*
%TO.P,U1,2,RA5*%
%TO.N,Net-(C2-Pad2)*%
X116949999Y-98899999D03*
%TO.P,U1,3,RA4*%
%TO.N,Net-(C2-Pad1)*%
X117599999Y-98899999D03*
%TO.P,U1,4,RA3/MCLR/VPP*%
%TO.N,Net-(P1-Pad1)*%
X118249999Y-98899999D03*
%TO.P,U1,5,RA2*%
%TO.N,Net-(U1-Pad5)*%
X118249999Y-94499999D03*
%TO.P,U1,6,RA1/ICSPCLK*%
%TO.N,Net-(P1-Pad5)*%
X117599999Y-94499999D03*
%TO.P,U1,7,RA0/ICSPDAT*%
%TO.N,Net-(P1-Pad4)*%
X116949999Y-94499999D03*
%TO.P,U1,8,VSS*%
%TO.N,GND*%
X116299999Y-94499999D03*
%TD*%
D15*
%TO.P,S1,1,A*%
%TO.N,GND*%
X111349999Y-83699999D03*
%TO.P,S1,2,A*%
X104549999Y-83699999D03*
%TO.P,S1,3,B*%
%TO.N,Net-(P1-Pad1)*%
X111349999Y-87699999D03*
%TO.P,S1,4,B*%
X104549999Y-87699999D03*
%TD*%
D16*
%TO.P,P1,1,MCLR_N*%
%TO.N,Net-(P1-Pad1)*%
X105410000Y-80200000D03*
%TO.P,P1,2,VDD*%
%TO.N,3V*%
X106680000Y-80200000D03*
%TO.P,P1,3,GND*%
%TO.N,GND*%
X107950000Y-80200000D03*
%TO.P,P1,4,PGD*%
%TO.N,Net-(P1-Pad4)*%
X109220000Y-80200000D03*
%TO.P,P1,5,PGC*%
%TO.N,Net-(P1-Pad5)*%
X110490000Y-80200000D03*
%TD*%
D12*
%TO.P,BT1,1,+*%
%TO.N,3V*%
X97150000Y-114200000D03*
X118750000Y-114200000D03*
D17*
%TO.P,BT1,2,-*%
%TO.N,GND*%
X107949999Y-114199999D03*
%TD*%
D18*
%TO.P,D1,1,1*%
%TO.N,Net-(C2-Pad2)*%
X112949999Y-98659999D03*
%TO.P,D1,2,2*%
%TO.N,Net-(C2-Pad1)*%
X112949999Y-99059999D03*
%TD*%
D19*
%TO.P,REF\u002A\u002A,1*%
%TO.N,N/C*%
X107950000Y-104200000D03*
X107950000Y-94200000D03*
%TD*%
D20*
%TO.N,3V*%
X113770000Y-95790000D03*
X116330000Y-97550000D03*
%TD*%
D21*
%TO.N,Net-(C2-Pad1)*%
X117630000Y-100550000D02*
X117630000Y-98860000D01*
X117270000Y-100910000D02*
X117630000Y-100550000D01*
X115950000Y-100910000D02*
X117270000Y-100910000D01*
X115080000Y-100040000D02*
X115950000Y-100910000D01*
X115080000Y-99900000D02*
X115080000Y-100040000D01*
X114530000Y-99350000D02*
X115080000Y-99900000D01*
X113830000Y-99350000D02*
X114530000Y-99350000D01*
X113610000Y-99130000D02*
X113830000Y-99350000D01*
X110550000Y-99130000D02*
X113610000Y-99130000D01*
X106117100Y-101080000D02*
X106368430Y-101080000D01*
X103817100Y-103380000D02*
X106117100Y-101080000D01*
X106368430Y-101080000D02*
X106572941Y-100875489D01*
X100930000Y-103380000D02*
X103817100Y-103380000D01*
X108804511Y-100875489D02*
X110550000Y-99130000D01*
X100250000Y-102700000D02*
X100930000Y-103380000D01*
X106572941Y-100875489D02*
X108804511Y-100875489D01*
X100250000Y-101000000D02*
X100250000Y-102700000D01*
%TO.N,3V*%
X113750000Y-95770000D02*
X113770000Y-95790000D01*
X112950000Y-95147000D02*
X113603000Y-95147000D01*
X113603000Y-95147000D02*
X113750000Y-95000000D01*
X113750000Y-95000000D02*
X113750000Y-95770000D01*
X116300000Y-97580000D02*
X116330000Y-97550000D01*
X113750000Y-95000000D02*
X114450000Y-95000000D01*
X116300000Y-98900000D02*
X116300000Y-97580000D01*
%TO.N,GND*%
X119340000Y-98378590D02*
X116300000Y-95338590D01*
X115160000Y-94540000D02*
X116300000Y-94540000D01*
X107920000Y-81230000D02*
X107920000Y-81430000D01*
X111350000Y-83700000D02*
X113200000Y-83700000D01*
X116270000Y-86770000D02*
X116270000Y-94600000D01*
X116300000Y-94540000D02*
X116310000Y-94530000D01*
X111350000Y-83700000D02*
X110270000Y-83700000D01*
X110270000Y-83700000D02*
X107950000Y-81430000D01*
X119340000Y-102810000D02*
X119340000Y-98378590D01*
X107950000Y-80200000D02*
X107920000Y-81230000D01*
X107920000Y-81430000D02*
X105820000Y-83530000D01*
X113200000Y-83700000D02*
X116270000Y-86770000D01*
X116300000Y-95338590D02*
X116300000Y-94520000D01*
X107950000Y-114200000D02*
X119340000Y-102810000D01*
X115160000Y-94540000D02*
X114920000Y-94540000D01*
X114920000Y-94540000D02*
X114460000Y-94080000D01*
%TO.N,Net-(C2-Pad2)*%
X116950000Y-98900000D02*
X116950000Y-99950000D01*
X116950000Y-99950000D02*
X116700000Y-100200000D01*
X113900000Y-98380000D02*
X113610000Y-98670000D01*
X102650000Y-101000000D02*
X102650000Y-98350000D01*
X112570000Y-98260000D02*
X107720000Y-98260000D01*
X115530010Y-99450010D02*
X114460000Y-98380000D01*
X114460000Y-98380000D02*
X113900000Y-98380000D01*
X107720000Y-98260000D02*
X106610000Y-97150000D01*
X113580000Y-98640000D02*
X112980000Y-98640000D01*
X116700000Y-100200000D02*
X115950000Y-100200000D01*
X114450000Y-98385000D02*
X114495010Y-98339990D01*
X106610000Y-97150000D02*
X103850000Y-97150000D01*
X113610000Y-98670000D02*
X113580000Y-98640000D01*
X112570000Y-98260000D02*
X112950000Y-98640000D01*
X102650000Y-98350000D02*
X103850000Y-97150000D01*
X112980000Y-98640000D02*
X112960000Y-98660000D01*
X115950000Y-100200000D02*
X115530010Y-99780010D01*
X115530010Y-99780010D02*
X115530010Y-99450010D01*
%TO.N,Net-(P1-Pad5)*%
X117570000Y-85360000D02*
X117570000Y-94510000D01*
X110490000Y-80200000D02*
X112410000Y-80200000D01*
X112410000Y-80200000D02*
X117570000Y-85360000D01*
%TO.N,Net-(P1-Pad4)*%
X109220000Y-80200000D02*
X111095001Y-82075001D01*
X111095001Y-82075001D02*
X113485001Y-82075001D01*
X116930000Y-85520000D02*
X116930000Y-94600000D01*
X113485001Y-82075001D02*
X116930000Y-85520000D01*
%TO.N,Net-(P1-Pad1)*%
X108025000Y-87700000D02*
X111480000Y-91155000D01*
X104550000Y-87700000D02*
X108025000Y-87700000D01*
X111480000Y-91155000D02*
X111480000Y-87740000D01*
X118250000Y-98900000D02*
X118250000Y-97925000D01*
X102120000Y-83490000D02*
X102120000Y-85250000D01*
X105410000Y-80200000D02*
X102120000Y-83490000D01*
X102120000Y-85250000D02*
X104600000Y-87730000D01*
X112950000Y-93960000D02*
X112940000Y-93970000D01*
X112950000Y-92625000D02*
X112950000Y-93960000D01*
X112110000Y-94820000D02*
X112960000Y-93970000D01*
X112950000Y-92625000D02*
X112877500Y-92552500D01*
X112110000Y-95780000D02*
X112110000Y-94820000D01*
X112877500Y-92552500D02*
X111480000Y-91155000D01*
X113090000Y-96760000D02*
X112110000Y-95780000D01*
X118250000Y-97925000D02*
X117085000Y-96760000D01*
X117085000Y-96760000D02*
X113090000Y-96760000D01*
%TD*%
M02*
